<mxfile host="app.diagrams.net" modified="2023-11-05T09:32:30.939Z" agent="Mozilla/5.0 (Windows NT 10.0; Win64; x64) AppleWebKit/537.36 (KHTML, like Gecko) Chrome/118.0.0.0 Safari/537.36" etag="R5ePU2tzCTutHdGisYDH" version="22.0.8" type="device">
  <diagram name="Page-1" id="rQympfGM8GArIkw5HgA1">
    <mxGraphModel dx="1007" dy="558" grid="0" gridSize="10" guides="1" tooltips="1" connect="1" arrows="1" fold="1" page="1" pageScale="1" pageWidth="850" pageHeight="1100" math="0" shadow="0">
      <root>
        <mxCell id="0" />
        <mxCell id="1" parent="0" />
        <mxCell id="dElDcBznl4VKj-180xXq-15" style="edgeStyle=orthogonalEdgeStyle;rounded=0;orthogonalLoop=1;jettySize=auto;html=1;entryX=0.5;entryY=0;entryDx=0;entryDy=0;" edge="1" parent="1" source="dElDcBznl4VKj-180xXq-1" target="dElDcBznl4VKj-180xXq-6">
          <mxGeometry relative="1" as="geometry" />
        </mxCell>
        <mxCell id="dElDcBznl4VKj-180xXq-16" style="edgeStyle=orthogonalEdgeStyle;rounded=0;orthogonalLoop=1;jettySize=auto;html=1;entryX=0.5;entryY=1;entryDx=0;entryDy=0;" edge="1" parent="1" source="dElDcBznl4VKj-180xXq-1" target="dElDcBznl4VKj-180xXq-8">
          <mxGeometry relative="1" as="geometry" />
        </mxCell>
        <mxCell id="dElDcBznl4VKj-180xXq-17" style="edgeStyle=orthogonalEdgeStyle;rounded=0;orthogonalLoop=1;jettySize=auto;html=1;entryX=0.5;entryY=1;entryDx=0;entryDy=0;exitX=0;exitY=0;exitDx=0;exitDy=0;" edge="1" parent="1" source="dElDcBznl4VKj-180xXq-1" target="dElDcBznl4VKj-180xXq-10">
          <mxGeometry relative="1" as="geometry">
            <Array as="points">
              <mxPoint x="310" y="310" />
              <mxPoint x="240" y="310" />
            </Array>
          </mxGeometry>
        </mxCell>
        <mxCell id="dElDcBznl4VKj-180xXq-18" style="edgeStyle=orthogonalEdgeStyle;rounded=0;orthogonalLoop=1;jettySize=auto;html=1;" edge="1" parent="1" source="dElDcBznl4VKj-180xXq-1" target="dElDcBznl4VKj-180xXq-7">
          <mxGeometry relative="1" as="geometry" />
        </mxCell>
        <mxCell id="dElDcBznl4VKj-180xXq-19" style="edgeStyle=orthogonalEdgeStyle;rounded=0;orthogonalLoop=1;jettySize=auto;html=1;exitX=0;exitY=1;exitDx=0;exitDy=0;" edge="1" parent="1" source="dElDcBznl4VKj-180xXq-1" target="dElDcBznl4VKj-180xXq-9">
          <mxGeometry relative="1" as="geometry" />
        </mxCell>
        <mxCell id="dElDcBznl4VKj-180xXq-20" style="edgeStyle=orthogonalEdgeStyle;rounded=0;orthogonalLoop=1;jettySize=auto;html=1;entryX=0;entryY=0.5;entryDx=0;entryDy=0;" edge="1" parent="1" source="dElDcBznl4VKj-180xXq-1" target="dElDcBznl4VKj-180xXq-11">
          <mxGeometry relative="1" as="geometry" />
        </mxCell>
        <mxCell id="dElDcBznl4VKj-180xXq-1" value="Employee" style="whiteSpace=wrap;html=1;align=center;" vertex="1" parent="1">
          <mxGeometry x="310" y="330" width="100" height="40" as="geometry" />
        </mxCell>
        <mxCell id="dElDcBznl4VKj-180xXq-3" value="Number" style="ellipse;whiteSpace=wrap;html=1;align=center;" vertex="1" parent="1">
          <mxGeometry x="610" y="330" width="100" height="40" as="geometry" />
        </mxCell>
        <mxCell id="dElDcBznl4VKj-180xXq-4" value="&amp;nbsp;Name" style="ellipse;whiteSpace=wrap;html=1;align=center;" vertex="1" parent="1">
          <mxGeometry x="610" y="380" width="100" height="40" as="geometry" />
        </mxCell>
        <mxCell id="dElDcBznl4VKj-180xXq-5" value="ID" style="ellipse;whiteSpace=wrap;html=1;align=center;" vertex="1" parent="1">
          <mxGeometry x="610" y="260" width="100" height="40" as="geometry" />
        </mxCell>
        <mxCell id="dElDcBznl4VKj-180xXq-6" value="Salary" style="ellipse;whiteSpace=wrap;html=1;align=center;" vertex="1" parent="1">
          <mxGeometry x="310" y="420" width="100" height="40" as="geometry" />
        </mxCell>
        <mxCell id="dElDcBznl4VKj-180xXq-7" value="Name" style="ellipse;whiteSpace=wrap;html=1;align=center;" vertex="1" parent="1">
          <mxGeometry x="190" y="330" width="100" height="40" as="geometry" />
        </mxCell>
        <mxCell id="dElDcBznl4VKj-180xXq-8" value="ID" style="ellipse;whiteSpace=wrap;html=1;align=center;" vertex="1" parent="1">
          <mxGeometry x="310" y="230" width="100" height="40" as="geometry" />
        </mxCell>
        <mxCell id="dElDcBznl4VKj-180xXq-9" value="Email" style="ellipse;whiteSpace=wrap;html=1;align=center;" vertex="1" parent="1">
          <mxGeometry x="190" y="420" width="100" height="40" as="geometry" />
        </mxCell>
        <mxCell id="dElDcBznl4VKj-180xXq-10" value="Number" style="ellipse;whiteSpace=wrap;html=1;align=center;" vertex="1" parent="1">
          <mxGeometry x="190" y="230" width="100" height="40" as="geometry" />
        </mxCell>
        <mxCell id="dElDcBznl4VKj-180xXq-12" style="edgeStyle=orthogonalEdgeStyle;rounded=0;orthogonalLoop=1;jettySize=auto;html=1;" edge="1" parent="1" source="dElDcBznl4VKj-180xXq-11" target="dElDcBznl4VKj-180xXq-3">
          <mxGeometry relative="1" as="geometry" />
        </mxCell>
        <mxCell id="dElDcBznl4VKj-180xXq-13" style="edgeStyle=orthogonalEdgeStyle;rounded=0;orthogonalLoop=1;jettySize=auto;html=1;entryX=0;entryY=0.5;entryDx=0;entryDy=0;" edge="1" parent="1" source="dElDcBznl4VKj-180xXq-11" target="dElDcBznl4VKj-180xXq-5">
          <mxGeometry relative="1" as="geometry">
            <Array as="points">
              <mxPoint x="530" y="310" />
              <mxPoint x="590" y="310" />
              <mxPoint x="590" y="280" />
            </Array>
          </mxGeometry>
        </mxCell>
        <mxCell id="dElDcBznl4VKj-180xXq-14" style="edgeStyle=orthogonalEdgeStyle;rounded=0;orthogonalLoop=1;jettySize=auto;html=1;entryX=0;entryY=0.5;entryDx=0;entryDy=0;" edge="1" parent="1" source="dElDcBznl4VKj-180xXq-11" target="dElDcBznl4VKj-180xXq-4">
          <mxGeometry relative="1" as="geometry">
            <Array as="points">
              <mxPoint x="520" y="390" />
              <mxPoint x="590" y="390" />
              <mxPoint x="590" y="400" />
            </Array>
          </mxGeometry>
        </mxCell>
        <mxCell id="dElDcBznl4VKj-180xXq-11" value="Department" style="rounded=1;arcSize=10;whiteSpace=wrap;html=1;align=center;" vertex="1" parent="1">
          <mxGeometry x="480" y="330" width="100" height="40" as="geometry" />
        </mxCell>
      </root>
    </mxGraphModel>
  </diagram>
</mxfile>
